<svg xmlns="http://www.w3.org/2000/svg" height="1024" preserveAspectRatio="none" style="display: block;" version="1.1" viewBox="0 0 2048 2048" width="1024">
<defs>
	<linearGradient gradientUnits="userSpaceOnUse" id="Gradient1" x1="444.307" x2="473.88" y1="775.385" y2="824.905">
		<stop class="stop0" offset="0" stop-color="rgb(152,117,148)" stop-opacity="1"></stop>
		<stop class="stop1" offset="1" stop-color="rgb(157,137,177)" stop-opacity="1"></stop>
	</linearGradient>
	<!-- Rounded-square mask: rounds the icon's corners cleanly instead of the
	     old white corner fills that read as a border. -->
	<clipPath id="rounded">
		<rect x="0" y="0" width="2048" height="2048" rx="448" ry="448"></rect>
	</clipPath>
</defs>
<g clip-path="url(#rounded)">
<path d="M 0 0 L 487.112 0 L 1563.68 0 L 2048 0 L 2048 488.157 L 2048 1560.89 L 2048 2048 L 1567.72 2048 L 483.499 2048 L 0 2048 L 0 1557.78 L 0 490.467 L 0 0 z" fill="#1e1e2e" transform="translate(0,0)"></path>
<path d="M 0 1557.78 C 3.93595 1588.82 3.70209 1607.09 10.6282 1639.87 C 35.9689 1759.87 103.044 1867 199.928 1942.21 C 263.149 1990.94 336.931 2024.13 415.33 2039.13 C 427.315 2041.44 439.392 2043.25 451.529 2044.55 C 460.259 2045.43 475.28 2046.35 483.499 2048 L 0 2048 L 0 1557.78 z" fill="none" transform="translate(0,0)"></path>
<path d="M 0 0 L 487.112 0 C 465.982 2.89629 445.159 4.17816 423.938 7.62872 C 199.272 44.1591 19.5609 238.424 2.62951 465.677 C 2.11038 472.644 1.40062 483.722 0 490.467 L 0 0 z" fill="none" transform="translate(0,0)"></path>
<path d="M 2048 1560.89 L 2048 2048 L 1567.72 2048 C 1572.57 2046.96 1586.44 2045.98 1592 2045.4 C 1604.99 2044.07 1617.92 2042.22 1630.76 2039.86 C 1705.16 2025.96 1775.49 1995.55 1836.57 1950.85 C 1931.71 1880.82 2004.2 1777.68 2032.17 1662.4 C 2036.58 1644.89 2040.05 1627.14 2042.56 1609.25 C 2044.62 1593.48 2045.65 1576.36 2048 1560.89 z" fill="none" transform="translate(0,0)"></path>
<path d="M 1563.68 0 L 2048 0 L 2048 488.157 C 2047.02 483.779 2046.01 469.6 2045.54 464.063 C 2044.34 450.082 2042.85 438.22 2040.4 424.372 C 2027.27 346.987 1996.26 273.735 1949.84 210.441 C 1877.48 110.151 1770.97 39.7617 1650.34 12.5201 C 1617.53 5.07925 1595.04 4.90535 1563.68 0 z" fill="none" transform="translate(0,0)"></path>
<path d="M 788.604 616.146 C 789.864 604.903 792.351 593.922 794.872 582.988 C 835.184 408.148 1008.95 309.625 1179.7 310.862 C 1202.63 311.028 1226.08 310.37 1249.32 310.75 L 1250.19 533.453 C 1253.1 549.733 1248.68 614.399 1251.81 622.301 L 1252.58 621.872 C 1269.91 524.185 1311.33 443.491 1394.77 385.886 C 1452.68 345.916 1524.24 320.712 1594.25 313.425 C 1630.83 309.617 1677.08 310.676 1714.34 310.959 C 1714.82 418.636 1714.71 526.315 1714.03 633.991 C 1705.95 648.789 1696.21 663.306 1687.28 677.653 C 1620.15 785.564 1549.29 892.265 1483.76 1001.08 L 1480.76 1005.2 C 1455.38 1045.11 1430.27 1085.2 1405.45 1125.46 C 1353.51 1207.54 1302 1289.89 1250.93 1372.52 C 1248.2 1372.47 1245.47 1372.41 1242.75 1372.33 C 1219.74 1370.27 1182.89 1371.27 1158.89 1371.31 L 1018.73 1371.89 C 1018.76 1327.95 1017.95 1282.29 1018.75 1238.52 C 1017.38 1228.76 1019.54 1197.19 1017.06 1191.57 C 905.782 1201.6 828.223 1253.97 792.635 1362.38 C 791.502 1364.34 793.531 1364.52 792.501 1366.01 L 792.237 1366.04 C 791.004 1365.2 789.019 1362.73 788.814 1361.25 C 779.786 1343.37 761.519 1317.23 750.263 1298.65 C 708.309 1230.6 665.872 1162.84 622.956 1095.39 C 606.742 1069.6 581.919 1033.91 568.211 1008.02 C 564.667 1006.91 560.25 1001.44 558.633 998.063 C 539.367 968.351 521.413 937.386 502.191 907.584 C 495.247 896.818 487.287 884.139 481.535 872.805 C 479.23 871.109 417.316 773.121 414.501 767.052 C 408.091 758.915 399.224 742.963 393.08 733.68 C 374.886 706.195 357.555 675.46 338.688 648.549 L 340.265 646.582 C 367.959 671.931 420.857 718.096 441.762 745.635 C 466.895 772.037 500.349 823.652 516.446 856.223 C 526.247 876.567 542.005 912.164 545.404 934.012 L 549.127 933.998 C 544.944 871.305 555.523 794.466 590.639 741.483 C 620.942 696.557 665.411 663.066 716.958 646.347 C 731.122 641.731 745.869 638.927 760.456 635.975 C 767.682 636.029 778.053 633.507 786.26 633.961 C 786.742 633.141 786.595 633.466 786.783 632.939 C 787.666 630.038 787.368 629.456 787.654 626.508 L 788.157 620.998 C 788.338 619.158 788.502 617.997 788.604 616.146 z" fill="rgb(23,21,22)" transform="translate(0,0)"></path>
<path d="M 788.604 616.146 C 789.864 604.903 792.351 593.922 794.872 582.988 C 835.184 408.148 1008.95 309.625 1179.7 310.862 C 1202.63 311.028 1226.08 310.37 1249.32 310.75 L 1250.19 533.453 C 1253.1 549.733 1248.68 614.399 1251.81 622.301 L 1252.58 621.872 L 1251.3 633.084 C 1251.17 638.272 1251.12 653.116 1250.18 657.536 C 1249.82 650.617 1250.1 641.701 1250.13 634.636 C 1241.54 634.875 1234.45 635.357 1225.89 636.169 C 1161.5 646.097 1104.89 675.252 1065.56 728.217 C 1021.65 787.355 1013.41 860.645 1015.68 931.984 C 1016.23 949.18 1016.88 970.18 1019.11 986.989 C 1019.14 989.506 1019.26 991.717 1019.4 994.221 L 1018.14 996.02 L 1019.44 1001.84 C 1016.29 1001.93 1010.15 1001.81 1007.48 1002.86 C 1006.95 1003.59 1006.42 1004.33 1005.89 1005.07 L 1018.8 1003.83 C 1018.92 1054.43 1019.51 1135.14 1018.49 1189.31 C 1018.01 1190.07 1017.54 1190.82 1017.06 1191.57 C 905.782 1201.6 828.223 1253.97 792.635 1362.38 C 791.502 1364.34 793.531 1364.52 792.501 1366.01 L 792.237 1366.04 C 791.004 1365.2 789.019 1362.73 788.814 1361.25 C 779.786 1343.37 761.519 1317.23 750.263 1298.65 C 708.309 1230.6 665.872 1162.84 622.956 1095.39 C 606.742 1069.6 581.919 1033.91 568.211 1008.02 C 564.667 1006.91 560.25 1001.44 558.633 998.063 C 539.367 968.351 521.413 937.386 502.191 907.584 C 495.247 896.818 487.287 884.139 481.535 872.805 C 479.23 871.109 417.316 773.121 414.501 767.052 C 408.091 758.915 399.224 742.963 393.08 733.68 C 374.886 706.195 357.555 675.46 338.688 648.549 L 340.265 646.582 C 367.959 671.931 420.857 718.096 441.762 745.635 C 466.895 772.037 500.349 823.652 516.446 856.223 C 526.247 876.567 542.005 912.164 545.404 934.012 L 549.127 933.998 C 544.944 871.305 555.523 794.466 590.639 741.483 C 620.942 696.557 665.411 663.066 716.958 646.347 C 731.122 641.731 745.869 638.927 760.456 635.975 C 767.682 636.029 778.053 633.507 786.26 633.961 C 786.742 633.141 786.595 633.466 786.783 632.939 C 787.666 630.038 787.368 629.456 787.654 626.508 L 788.157 620.998 C 788.338 619.158 788.502 617.997 788.604 616.146 z" fill="rgb(23,21,22)" transform="translate(0,0)"></path>
<path d="M 788.604 616.146 C 789.864 604.903 792.351 593.922 794.872 582.988 C 835.184 408.148 1008.95 309.625 1179.7 310.862 C 1202.63 311.028 1226.08 310.37 1249.32 310.75 L 1250.19 533.453 C 1253.1 549.733 1248.68 614.399 1251.81 622.301 L 1252.58 621.872 L 1251.3 633.084 C 1251.17 638.272 1251.12 653.116 1250.18 657.536 C 1249.82 650.617 1250.1 641.701 1250.13 634.636 C 1241.54 634.875 1234.45 635.357 1225.89 636.169 L 1223.95 632.97 L 786.783 632.939 C 787.666 630.038 787.368 629.456 787.654 626.508 L 788.157 620.998 C 788.338 619.158 788.502 617.997 788.604 616.146 z" fill="rgb(215,133,169)" transform="translate(0,0)"></path>
<path d="M 1250.19 533.453 C 1253.1 549.733 1248.68 614.399 1251.81 622.301 L 1252.58 621.872 L 1251.3 633.084 C 1251.17 638.272 1251.12 653.116 1250.18 657.536 C 1249.82 650.617 1250.1 641.701 1250.13 634.636 C 1241.54 634.875 1234.45 635.357 1225.89 636.169 L 1223.95 632.97 C 1232.58 632.856 1241.63 633.084 1250.29 633.167 C 1250.35 600.052 1249.71 566.471 1250.19 533.453 z" fill="rgb(65,39,61)" transform="translate(0,0)"></path>
<path d="M 760.456 635.975 C 767.682 636.029 778.053 633.507 786.26 633.961 C 785.085 694.981 786.116 758.873 785.927 820.219 C 715.56 823.389 659.55 844.543 610.255 897.14 C 589.617 919.16 562.633 967.941 559.718 997.95 L 558.633 998.063 C 539.367 968.351 521.413 937.386 502.191 907.584 C 495.247 896.818 487.287 884.139 481.535 872.805 C 479.23 871.109 417.316 773.121 414.501 767.052 C 408.091 758.915 399.224 742.963 393.08 733.68 C 374.886 706.195 357.555 675.46 338.688 648.549 L 340.265 646.582 C 367.959 671.931 420.857 718.096 441.762 745.635 C 466.895 772.037 500.349 823.652 516.446 856.223 C 526.247 876.567 542.005 912.164 545.404 934.012 L 549.127 933.998 C 544.944 871.305 555.523 794.466 590.639 741.483 C 620.942 696.557 665.411 663.066 716.958 646.347 C 731.122 641.731 745.869 638.927 760.456 635.975 z" fill="rgb(156,156,248)" transform="translate(0,0)"></path>
<path d="M 340.265 646.582 C 367.959 671.931 420.857 718.096 441.762 745.635 L 440.883 747.183 C 443.971 750.951 456.257 764.483 457.532 767.612 C 443.832 777.169 442.773 780.913 432.306 793.083 C 429.611 788.705 417.845 768.034 414.501 767.052 C 408.091 758.915 399.224 742.963 393.08 733.68 C 374.886 706.195 357.555 675.46 338.688 648.549 L 340.265 646.582 z" fill="rgb(148,97,120)" transform="translate(0,0)"></path>
<path d="M 432.306 793.083 C 442.773 780.913 443.832 777.169 457.532 767.612 C 456.257 764.483 443.971 750.951 440.883 747.183 L 441.762 745.635 C 466.895 772.037 500.349 823.652 516.446 856.223 C 505.26 848.844 499.234 816.606 485.967 815.389 C 481.89 816.462 463.294 831.225 460.236 834.96 C 461.712 843.055 482.227 865.799 481.535 872.805 C 479.23 871.109 417.316 773.121 414.501 767.052 C 417.845 768.034 429.611 788.705 432.306 793.083 z" fill="url(#Gradient1)" transform="translate(0,0)"></path>
<path d="M 545.404 934.012 L 549.127 933.998 C 549.996 940.915 553.777 959.801 553.487 965.538 C 552.647 964.774 546.49 937.62 545.545 934.48 L 545.404 934.012 z" fill="rgb(51,46,73)" transform="translate(0,0)"></path>
<path d="M 1018.8 1003.83 C 1018.92 1054.43 1019.51 1135.14 1018.49 1189.31 C 1018.01 1190.07 1017.54 1190.82 1017.06 1191.57 C 905.782 1201.6 828.223 1253.97 792.635 1362.38 C 791.502 1364.34 793.531 1364.52 792.501 1366.01 L 792.237 1366.04 C 791.004 1365.2 789.019 1362.73 788.814 1361.25 C 790.153 1348.58 783.865 1329.06 781.89 1316.05 C 783.694 1315.78 783.673 1315.91 785.115 1315.09 C 777.198 1246.92 790.37 1162.92 830.147 1106.58 C 871.968 1047.34 928.328 1018.13 997.721 1005.45 C 1000.98 1005.09 1002.59 1005.04 1005.89 1005.07 L 1018.8 1003.83 z" fill="rgb(156,156,248)" transform="translate(0,0)"></path>
<path d="M 781.89 1316.05 C 783.694 1315.78 783.673 1315.91 785.115 1315.09 C 785.648 1321.2 790.301 1358.22 792.635 1362.38 C 791.502 1364.34 793.531 1364.52 792.501 1366.01 L 792.237 1366.04 C 791.004 1365.2 789.019 1362.73 788.814 1361.25 C 790.153 1348.58 783.865 1329.06 781.89 1316.05 z" fill="rgb(20,15,21)" transform="translate(0,0)"></path>
<path d="M 785.718 821.009 C 828.02 822.557 864.129 828.884 901.939 848.901 C 962.748 881.095 995.292 922.746 1015.81 987.004 L 1019.11 986.989 C 1019.14 989.506 1019.26 991.717 1019.4 994.221 L 1018.14 996.02 L 1019.44 1001.84 C 1016.29 1001.93 1010.15 1001.81 1007.48 1002.86 C 1006.95 1003.59 1006.42 1004.33 1005.89 1005.07 C 1002.59 1005.04 1000.98 1005.09 997.721 1005.45 L 994.157 1003.2 C 974.782 1002.34 947.615 1003.39 927.275 1003.38 L 785.072 1003.26 L 785.718 821.009 z" fill="rgb(156,156,248)" transform="translate(0,0)"></path>
<path d="M 1007.48 1002.86 C 1006.95 1003.59 1006.42 1004.33 1005.89 1005.07 C 1002.59 1005.04 1000.98 1005.09 997.721 1005.45 L 994.157 1003.2 C 998.706 1002.97 1002.94 1002.96 1007.48 1002.86 z" fill="rgb(20,15,21)" transform="translate(0,0)"></path>
<path d="M 1015.81 987.004 L 1019.11 986.989 C 1019.14 989.506 1019.26 991.717 1019.4 994.221 L 1018.14 996.02 C 1017.36 992.932 1016.72 990.078 1015.81 987.004 z" fill="rgb(20,15,21)" transform="translate(0,0)"></path>
<path d="M 568.211 1008.02 C 577.697 1014.4 590.418 1025 599.591 1032.36 C 689.799 1104.39 753.848 1204.07 781.89 1316.05 C 783.865 1329.06 790.153 1348.58 788.814 1361.25 C 779.786 1343.37 761.519 1317.23 750.263 1298.65 C 708.309 1230.6 665.872 1162.84 622.956 1095.39 C 606.742 1069.6 581.919 1033.91 568.211 1008.02 z" fill="rgb(215,133,169)" transform="translate(0,0)"></path>
<path d="M 558.633 998.063 L 559.718 997.95 C 561.919 999.995 568.531 1005.06 568.211 1008.02 C 564.667 1006.91 560.25 1001.44 558.633 998.063 z" fill="rgb(20,15,21)" transform="translate(0,0)"></path>
<path d="M 1252.58 621.872 C 1269.91 524.185 1311.33 443.491 1394.77 385.886 C 1452.68 345.916 1524.24 320.712 1594.25 313.425 C 1630.83 309.617 1677.08 310.676 1714.34 310.959 C 1714.82 418.636 1714.71 526.315 1714.03 633.991 C 1711.12 633.968 1707.93 633.801 1705 633.702 C 1700.95 634.654 1693.37 635.951 1689.27 635.965 C 1685.33 633.109 1684.53 634.244 1679.69 633.167 C 1668.25 632.266 1645.72 632.987 1633.3 632.997 L 1542.83 633.06 L 1251.3 633.084 L 1252.58 621.872 z" fill="rgb(215,133,169)" transform="translate(0,0)"></path>
<path d="M 1679.69 633.167 C 1686.43 632.947 1698.75 632.556 1705 633.702 C 1700.95 634.654 1693.37 635.951 1689.27 635.965 C 1685.33 633.109 1684.53 634.244 1679.69 633.167 z" fill="rgb(20,15,21)" transform="translate(0,0)"></path>
<path d="M 1464 1005.62 C 1469.43 1005.3 1475.4 1004.72 1480.76 1005.2 C 1455.38 1045.11 1430.27 1085.2 1405.45 1125.46 C 1353.51 1207.54 1302 1289.89 1250.93 1372.52 C 1248.2 1372.47 1245.47 1372.41 1242.75 1372.33 C 1219.74 1370.27 1182.89 1371.27 1158.89 1371.31 L 1018.73 1371.89 C 1018.76 1327.95 1017.95 1282.29 1018.75 1238.52 C 1019.8 1225.43 1019.09 1204.52 1019 1190.87 C 1024.97 1190.95 1030.84 1191.14 1036.79 1190.69 C 1095.98 1192.45 1157.71 1220.75 1198.33 1263.76 C 1220.26 1287.2 1236.42 1315.45 1245.51 1346.24 L 1247.2 1346.34 C 1244.11 1324.28 1244.25 1305.69 1243.77 1283.84 C 1240.61 1139.25 1313.46 1027.2 1464 1005.62 z" fill="rgb(156,156,248)" transform="translate(0,0)"></path>
<path d="M 1247.2 1346.34 C 1247.45 1347 1248.89 1351.07 1247.47 1351.33 C 1246.26 1350.37 1245.84 1347.68 1245.51 1346.24 L 1247.2 1346.34 z" fill="rgb(107,102,174)" transform="translate(0,0)"></path>
<path d="M 1225.89 636.169 C 1234.45 635.357 1241.54 634.875 1250.13 634.636 C 1250.1 641.701 1249.82 650.617 1250.18 657.536 C 1249.72 711.897 1250.72 767.234 1249.79 821.434 C 1157.22 826.742 1081.8 869.457 1038.22 952.619 C 1035.49 957.824 1021.08 995.782 1020.54 996.347 L 1019.4 994.221 C 1019.26 991.717 1019.14 989.506 1019.11 986.989 C 1016.88 970.18 1016.23 949.18 1015.68 931.984 C 1013.41 860.645 1021.65 787.355 1065.56 728.217 C 1104.89 675.252 1161.5 646.097 1225.89 636.169 z" fill="rgb(156,156,248)" transform="translate(0,0)"></path>
<path d="M 1249.84 821.99 C 1362.03 821.383 1452.56 887.916 1480.55 997.101 L 1482.52 995.86 L 1483.76 1001.08 L 1480.76 1005.2 C 1475.4 1004.72 1469.43 1005.3 1464 1005.62 C 1457.45 1000.11 1333.21 1007.99 1311.43 1003.21 C 1291.27 1002.71 1269.85 1003.07 1249.59 1003.08 C 1249.22 942.715 1249.31 882.351 1249.84 821.99 z" fill="rgb(156,156,248)" transform="translate(0,0)"></path>
<path d="M 1482.52 995.86 L 1483.76 1001.08 L 1480.76 1005.2 C 1475.4 1004.72 1469.43 1005.3 1464 1005.62 C 1457.45 1000.11 1333.21 1007.99 1311.43 1003.21 C 1321.43 1002.75 1331.85 1003.24 1341.9 1003.11 C 1387.84 1002.51 1434.34 1004.07 1480.25 1002.9 L 1481.32 1001.65 L 1480.55 997.101 L 1482.52 995.86 z" fill="rgb(51,46,73)" transform="translate(0,0)"></path>
<path d="M 1689.27 635.965 C 1693.37 635.951 1700.95 634.654 1705 633.702 C 1707.93 633.801 1711.12 633.968 1714.03 633.991 C 1705.95 648.789 1696.21 663.306 1687.28 677.653 C 1620.15 785.564 1549.29 892.265 1483.76 1001.08 L 1482.52 995.86 L 1482.19 994.232 C 1478.17 973.839 1477.59 945.483 1476.83 924.661 C 1474.42 858.598 1484.3 795.266 1521.58 738.859 C 1550.64 694.899 1599.49 660.727 1649.63 644.978 C 1663 640.777 1675.5 638.688 1689.27 635.965 z" fill="rgb(156,156,248)" transform="translate(0,0)"></path>
<path d="M 1019.44 1001.84 C 1020.57 1013.78 1019.99 1029.69 1019.92 1041.88 C 1019.67 1091.14 1020.56 1140.69 1019.73 1189.93 C 1023.98 1189.91 1033.21 1189.44 1036.79 1190.69 C 1030.84 1191.14 1024.97 1190.95 1019 1190.87 C 1019.09 1204.52 1019.8 1225.43 1018.75 1238.52 C 1017.38 1228.76 1019.54 1197.19 1017.06 1191.57 C 1017.54 1190.82 1018.01 1190.07 1018.49 1189.31 C 1019.51 1135.14 1018.92 1054.43 1018.8 1003.83 L 1005.89 1005.07 C 1006.42 1004.33 1006.95 1003.59 1007.48 1002.86 C 1010.15 1001.81 1016.29 1001.93 1019.44 1001.84 z" fill="rgb(107,102,174)" transform="translate(0,0)"></path>
<path d="M 328.697 633.042 C 350.624 448.662 486.941 335.298 667.163 313.321 C 704.581 308.758 747.286 310.811 785.173 310.962 L 786.151 606.346 C 787.724 611.55 784.619 611.243 788.604 616.146 C 788.502 617.997 788.338 619.158 788.157 620.998 L 787.654 626.508 C 787.368 629.456 787.666 630.038 786.783 632.939 C 786.595 633.466 786.742 633.141 786.26 633.961 C 778.053 633.507 767.682 636.029 760.456 635.975 C 758.89 631.783 754.628 633.656 749.731 633.118 C 738.76 632.325 716.039 633.045 704.228 633.062 L 614.476 633.091 L 328.697 633.042 z" fill="rgb(215,133,169)" transform="translate(0,0)"></path>
<path d="M 786.151 606.346 C 787.724 611.55 784.619 611.243 788.604 616.146 C 788.502 617.997 788.338 619.158 788.157 620.998 L 787.654 626.508 C 787.368 629.456 787.666 630.038 786.783 632.939 C 786.595 633.466 786.742 633.141 786.26 633.961 C 778.053 633.507 767.682 636.029 760.456 635.975 C 758.89 631.783 754.628 633.656 749.731 633.118 C 761.774 632.476 774.349 633.095 786.432 633.219 C 786.115 626 785.476 613.362 786.151 606.346 z" fill="rgb(65,39,61)" transform="translate(0,0)"></path>
<path d="M 1242.75 1372.33 C 1245.47 1372.41 1248.2 1372.47 1250.93 1372.52 C 1238.2 1394.24 1223.46 1416.2 1210.03 1437.71 L 1118.24 1584.4 L 1061.22 1675.5 C 1049.99 1693.68 1036.49 1717.15 1024.47 1734.07 C 1022.84 1733.48 1021.65 1732.39 1020.82 1730.87 C 1022.61 1726.81 1021.25 1723.11 1020.94 1718 C 1020.92 1715.37 1020.51 1712.82 1020.26 1710.21 C 1023.57 1705.19 1020.62 1703.5 1022.85 1700.24 C 1023.93 1677.43 1025.68 1655.59 1029.57 1634.22 C 1050.81 1517.55 1125.69 1410.84 1242.01 1373.61 C 1242.25 1373.19 1242.5 1372.76 1242.75 1372.33 z" fill="rgb(215,133,169)" transform="translate(0,0)"></path>
<path d="M 1020.26 1710.21 C 1023.57 1705.19 1020.62 1703.5 1022.85 1700.24 C 1023.43 1706.94 1022.76 1713.78 1023.36 1720.71 L 1020.94 1718 C 1020.92 1715.37 1020.51 1712.82 1020.26 1710.21 z" fill="rgb(20,15,21)" transform="translate(0,0)"></path>
<path d="M 1020.94 1718 L 1023.36 1720.71 C 1024.11 1725.57 1023.79 1729.17 1024.47 1734.07 C 1022.84 1733.48 1021.65 1732.39 1020.82 1730.87 C 1022.61 1726.81 1021.25 1723.11 1020.94 1718 z" fill="rgb(65,39,61)" transform="translate(0,0)"></path>
<path d="M 794.826 1367.02 C 807.859 1375.16 823.069 1388.29 834.785 1398.28 C 904.208 1457.24 958.398 1532.07 992.764 1616.42 C 1004.06 1644.69 1013.53 1680.57 1020.26 1710.21 C 1020.51 1712.82 1020.92 1715.37 1020.94 1718 C 1021.25 1723.11 1022.61 1726.81 1020.82 1730.87 C 1003.18 1699.79 981.363 1666.46 962.368 1636 L 851.29 1458.61 C 833.714 1430.49 810.375 1395.34 794.826 1367.02 z" fill="rgb(215,133,169)" transform="translate(0,0)"></path>
<path d="M 331.311 638.466 C 335.206 641.625 336.997 642.614 340.265 646.582 L 338.688 648.549 C 335.893 645.356 333.741 641.952 331.311 638.466 z" fill="rgb(65,39,61)" transform="translate(0,0)"></path>
</g>
<metadata><recraft-signature>{"signed_by": "recraft", "signature_b64": "/EVKiqp4oVA/xuzWa8knZku3BuOSvEDKg6vW46vrtGa8kI7XtzCZu9ssuVnFfkBjuRbS5b5VdZ/8JH+Od/upBw==", "signing_algo": "Ed25519", "generation_timestamp": 1780649964, "identifier": "836673c8-0bb9-4a14-b9a4-d148e93b4ea1"}</recraft-signature></metadata></svg>