<svg xmlns="http://www.w3.org/2000/svg" height="832" preserveAspectRatio="none" style="display: block;" version="1.1" viewBox="0 0 2048 1331" width="1280">
<path d="M 0 0 L 2048 0 L 2048 1331 L 0 1331 L 0 0 z" fill="rgb(26,26,30)" transform="translate(0,0)"></path>
<path d="M 1082.63 93.5025 L 1619.53 93.4353 L 1776.38 93.7908 C 1794.03 93.815 1844.29 92.9362 1858.7 95.335 C 1881.91 99.2705 1903.32 110.311 1919.99 126.932 C 1955.17 161.86 1952.42 196.036 1952.62 241.424 L 1952.61 849.527 L 1952.73 1047.39 L 1952.49 1107.06 C 1952.16 1147.35 1951.27 1172.31 1920.75 1203.2 C 1881.96 1242.47 1838.87 1237.22 1788.25 1237.17 L 1235.3 1237 L 1078.82 1237.1 C 1060.37 1237.11 1012.89 1238.13 996.931 1235.7 C 973.051 1231.85 950.959 1220.67 933.715 1203.71 C 910.197 1180.46 901.988 1154.45 901.791 1122.16 L 901.744 469.671 L 901.674 282.283 L 901.591 223.893 C 901.602 213.736 901.537 203.385 902.062 193.356 C 904.469 147.429 942.586 107.12 986.641 97.0488 C 1003.51 93.1921 1017.51 93.6837 1034.48 93.6188 L 1082.63 93.5025 z" fill="rgb(35,36,46)" transform="translate(0,0)"></path>
<path d="M 1067.41 581.154 C 1101.66 578.255 1131.86 603.43 1135.18 637.635 C 1138.5 671.839 1113.7 702.354 1079.54 706.094 C 1057.06 708.554 1035 698.738 1021.79 680.396 C 1008.57 662.054 1006.23 638.02 1015.68 617.478 C 1025.12 596.936 1044.89 583.061 1067.41 581.154 z" fill="rgb(219,221,248)" transform="translate(0,0)"></path>
<path d="M 1067.7 600.351 C 1089.8 599.597 1106.68 609.011 1111.41 631.335 C 1117.14 658.313 1107.01 680.93 1079.64 687.275 C 1022.01 692.981 1016.28 608.325 1067.7 600.351 z" fill="rgb(35,36,46)" transform="translate(0,0)"></path>
<path d="M 1347.06 437.173 C 1366.29 436.012 1373.77 438.031 1386.26 453.105 C 1386.79 448.639 1387.06 443.309 1387.4 438.756 L 1406.38 438.797 C 1406.11 456.43 1406.08 474.065 1406.28 491.699 C 1406.32 508.039 1408.1 524.487 1399.42 539.115 C 1382.63 567.422 1320.19 565.929 1313.16 530.381 C 1317.62 529.398 1329.63 529.803 1334.77 529.83 C 1336.02 531.534 1337.77 534.254 1339.36 535.628 C 1357.09 550.873 1384.92 541.604 1385.14 516.86 C 1385.17 514.268 1385.22 511.492 1385.21 508.88 C 1370.7 525.124 1350.3 529.436 1331.28 517.873 C 1321.07 511.758 1313.8 501.735 1311.16 490.129 C 1305.21 463.617 1321.18 442.566 1347.06 437.173 z" fill="rgb(219,221,248)" transform="translate(0,0)"></path>
<path d="M 1351.89 454.091 C 1366.06 450.579 1380.43 459.088 1384.15 473.2 C 1387.88 487.312 1379.59 501.803 1365.54 505.744 C 1356.25 508.347 1346.29 505.746 1339.46 498.939 C 1332.63 492.132 1330 482.174 1332.58 472.883 C 1335.15 463.593 1342.54 456.411 1351.89 454.091 z" fill="rgb(35,36,46)" transform="translate(0,0)"></path>
<path d="M 1198.46 615.298 C 1200.01 615.234 1201.56 615.229 1203.11 615.281 C 1264.29 617.596 1258.1 712.097 1196.86 706.034 C 1184.37 704.797 1177.62 698.115 1170.13 688.727 L 1170.14 704.251 L 1170.14 734.611 L 1149.75 734.67 L 1149.39 617.259 L 1168.21 617.27 L 1168.18 633.653 C 1177.97 620.968 1182.7 617.516 1198.46 615.298 z" fill="rgb(219,221,248)" transform="translate(0,0)"></path>
<path d="M 1191.25 634.236 C 1205.9 630.417 1220.88 639.194 1224.72 653.848 C 1228.55 668.501 1219.79 683.489 1205.14 687.336 C 1190.47 691.187 1175.46 682.409 1171.62 667.737 C 1167.78 653.064 1176.57 638.061 1191.25 634.236 z" fill="rgb(35,36,46)" transform="translate(0,0)"></path>
<path d="M 1444.59 634.085 C 1461.05 608.146 1499.92 606.742 1506.77 638.688 C 1510.09 654.214 1508.09 686.764 1508.03 703.666 L 1487.07 703.822 C 1486.96 691.811 1489.8 641.949 1482.81 638.389 C 1441.79 617.501 1447.19 669.699 1447.41 682.5 L 1447.42 703.95 L 1426.77 703.987 C 1426.41 690.811 1438.05 608.134 1394.54 639.173 C 1383.3 647.192 1386.73 688.245 1386.85 703.586 L 1365.83 703.692 L 1365.95 617.443 L 1383.82 617.579 L 1384.52 632.007 C 1394.37 621.645 1396.97 617.927 1411.08 615.218 C 1427.53 614.121 1438.47 618.342 1444.59 634.085 z" fill="rgb(219,221,248)" transform="translate(0,0)"></path>
<path d="M 1105.91 436.352 C 1121.97 436.928 1129.82 439.496 1136.88 454.699 C 1155.18 429.064 1193.95 428.774 1198.92 462.92 C 1201.5 480.623 1200 506.327 1199.96 524.843 L 1179.04 524.837 C 1179.1 512.455 1181.64 462.792 1174.4 459.131 C 1132.36 437.885 1139.66 497.716 1139.79 507.5 L 1139.76 524.898 L 1118.66 524.873 C 1118.49 513.957 1122 463.727 1113.23 459.236 C 1070.87 437.554 1078.9 501.841 1079.11 524.807 L 1058.11 524.815 L 1058.09 439.004 L 1076.12 439.09 C 1076.61 443.564 1076.95 448.332 1077.36 452.841 C 1086.07 442.163 1092.4 438.119 1105.91 436.352 z" fill="rgb(219,221,248)" transform="translate(0,0)"></path>
<path d="M 1696.13 615.406 C 1730.68 615.458 1742.62 635.186 1744.19 667.086 C 1720.5 666.902 1696.81 666.97 1673.12 667.289 C 1679.9 689.968 1705.55 698.673 1719.37 679.062 C 1722.37 677.449 1728.33 677.965 1732.08 677.999 L 1738.86 678.113 C 1749.89 687.954 1704.21 723.971 1669.16 696.586 C 1659.51 688.953 1653.38 677.731 1652.16 665.489 C 1649.06 636.524 1668.48 618.207 1696.13 615.406 z" fill="rgb(219,221,248)" transform="translate(0,0)"></path>
<path d="M 1694.45 632.253 C 1711.99 632.028 1716.61 636.275 1722.53 651.949 L 1703.24 651.966 C 1693.65 651.967 1683.36 652.151 1673.83 651.831 C 1678.67 639.528 1680.27 634.746 1694.45 632.253 z" fill="rgb(35,36,46)" transform="translate(0,0)"></path>
<path d="M 1464.69 436.332 C 1497.17 435.172 1512.25 457.696 1512.01 487.783 C 1503.54 487.883 1447.26 486.99 1444.01 489.369 C 1443.56 492.284 1445.58 498.057 1447.18 500.033 C 1458.96 514.587 1476.87 511.789 1489.76 500.348 C 1492.81 497.639 1497.48 498.396 1501.25 498.591 C 1505.03 498.624 1506.95 498.086 1509.22 500.234 C 1509.6 503.9 1509.59 504.981 1507.33 508.243 C 1492.02 530.38 1459.39 532.918 1438.96 517.784 C 1429.46 510.702 1423.21 500.1 1421.61 488.363 C 1417.54 458.952 1436.42 439.641 1464.69 436.332 z" fill="rgb(219,221,248)" transform="translate(0,0)"></path>
<path d="M 1462.27 453.24 C 1479.91 452.679 1485.18 457.171 1491.53 472.997 L 1473.5 472.982 L 1443.14 472.973 C 1447.37 461.264 1448.91 456.32 1462.27 453.24 z" fill="rgb(35,36,46)" transform="translate(0,0)"></path>
<path d="M 1254.5 436.376 C 1307.92 437.617 1297.22 484.819 1297.06 524.396 L 1278.16 524.439 L 1277.99 511.966 C 1272.73 517.468 1269.57 521.298 1262.14 523.876 C 1244.38 530.037 1222.64 527.113 1215.17 507.776 C 1214.78 505.755 1214.29 502.544 1214.27 500.491 C 1214.16 494.311 1216.59 488.357 1220.97 484.002 C 1233.8 471.302 1260.49 472.821 1277.58 472.877 C 1275.35 464.117 1274.28 459.188 1265.58 454.941 C 1260.28 452.398 1254.18 452.119 1248.66 454.169 C 1241.38 456.857 1239.21 460.231 1236.18 466.846 L 1216.21 466.923 C 1221.29 444.965 1232.75 438.416 1254.5 436.376 z" fill="rgb(219,221,248)" transform="translate(0,0)"></path>
<path d="M 1261.55 487.446 C 1266.7 487.334 1271.86 487.275 1277.01 487.269 C 1273.67 503.674 1269.25 508.968 1252.24 510.218 C 1243.91 509.487 1230.56 505.242 1238.11 493.017 C 1241.32 487.831 1255.26 487.813 1261.55 487.446 z" fill="rgb(35,36,46)" transform="translate(0,0)"></path>
<path d="M 1565.57 617.208 L 1641 617.55 L 1641.01 635.562 C 1625.72 648.396 1605.35 672.094 1589.02 687.192 L 1642.14 686.979 L 1642.06 703.369 C 1619.37 704.515 1589.22 703.771 1565.68 703.983 L 1565.76 685.409 C 1581.51 670.024 1601.02 650.039 1615.79 633.823 C 1599.24 634.134 1582.11 633.962 1565.52 634.009 L 1565.57 617.208 z" fill="rgb(219,221,248)" transform="translate(0,0)"></path>
<path d="M 1272.2 594.113 L 1288.23 594.034 L 1288.17 617.083 L 1310.81 617.098 L 1310.76 633.901 L 1288.23 633.911 C 1288.27 640.929 1288.04 648.503 1287.97 655.494 C 1287.77 675.227 1286.27 686.908 1309.9 688.104 L 1309.88 702.714 C 1307.37 704.568 1305.57 703.866 1302.51 704.072 C 1259.63 706.971 1267.04 666.445 1267.18 633.881 L 1252.07 633.886 L 1252.06 617.061 C 1271.08 616.736 1269.24 611.016 1272.2 594.113 z" fill="rgb(219,221,248)" transform="translate(0,0)"></path>
<path d="M 1016.36 408.259 L 1038.1 408.326 L 1038.43 485.904 C 1038.46 492.646 1038.99 519.227 1037.61 524.762 L 1016.6 524.785 L 1016.36 408.259 z" fill="rgb(219,221,248)" transform="translate(0,0)"></path>
<path d="M 1802.83 616.379 C 1807.11 616.509 1807.03 615.824 1810.18 618.058 C 1812.16 622.561 1811.25 630.476 1811.21 635.886 L 1809.47 635.863 C 1770.82 635.563 1779.82 675.672 1780.07 703.82 C 1775.17 703.93 1763.99 704.74 1760.25 702.892 L 1759.72 700.25 L 1759.51 617.65 L 1778.75 617.583 C 1778.87 622.563 1779.03 627.542 1779.24 632.519 C 1779.91 631.481 1780.61 630.464 1781.34 629.468 C 1787.6 620.903 1792.47 617.957 1802.83 616.379 z" fill="rgb(219,221,248)" transform="translate(0,0)"></path>
<path d="M 1528.19 617.806 L 1549.13 617.717 L 1549.26 703.987 L 1528.35 704.01 C 1527.92 675.609 1528.24 646.28 1528.19 617.806 z" fill="rgb(219,221,248)" transform="translate(0,0)"></path>
<path d="M 1324.78 617.068 L 1345.05 617.111 L 1345.17 703.699 L 1324.92 703.635 L 1324.78 617.068 z" fill="rgb(219,221,248)" transform="translate(0,0)"></path>
<path d="M 1016.95 781.225 C 1042.95 778.69 1048.48 801.025 1029.48 810.39 C 1018.03 811.927 1004.99 807.437 1007.28 793.504 C 1007.99 789.071 1010.59 785.164 1014.4 782.797 C 1015.24 782.271 1016.1 781.765 1016.95 781.225 z" fill="rgb(219,221,248)" transform="translate(0,0)"></path>
<path d="M 1020.85 785.916 C 1033.94 787.43 1036.42 797.68 1026.52 805.548 L 1024.52 805.398 C 1012.91 804.603 1011.65 792.537 1020.85 785.916 z" fill="rgb(35,36,46)" transform="translate(0,0)"></path>
<path d="M 1596.87 809.511 C 1585.56 801.509 1590.21 784.927 1606.6 789.692 C 1614.42 791.962 1616.81 780.708 1616.07 803.129 C 1615.87 809.246 1616.59 817.675 1607.53 819.364 C 1599.29 820.551 1595.4 819.462 1590.91 812.478 C 1593.55 811.155 1595.97 811.679 1596.87 809.511 z" fill="rgb(219,221,248)" transform="translate(0,0)"></path>
<path d="M 1599.63 809.892 L 1600.57 809.921 C 1603.76 810.001 1607.61 808.694 1608.35 808.943 C 1609.67 810.518 1606.15 819.822 1598.67 812.173 L 1599.63 809.892 z" fill="rgb(35,36,46)" transform="translate(0,0)"></path>
<path d="M 1596.87 809.511 C 1597.82 809.625 1598.69 809.751 1599.63 809.892 L 1598.67 812.173 C 1595.37 812.068 1594.15 812.142 1590.91 812.478 C 1593.55 811.155 1595.97 811.679 1596.87 809.511 z" fill="rgb(146,146,172)" transform="translate(0,0)"></path>
<path d="M 1602.1 793.901 C 1604.91 793.026 1607.92 794.486 1608.98 797.239 C 1610.03 799.991 1608.77 803.089 1606.09 804.318 C 1604.19 805.186 1601.98 804.929 1600.33 803.653 C 1598.69 802.376 1597.89 800.291 1598.26 798.242 C 1598.63 796.193 1600.11 794.52 1602.1 793.901 z" fill="rgb(35,36,46)" transform="translate(0,0)"></path>
<path d="M 1404.9 778.714 C 1420 779.093 1407.74 787.288 1412.78 790.135 C 1416.81 789.944 1424.53 784.161 1429.31 794.998 C 1431.25 799.389 1429.13 803.731 1427.01 807.733 C 1426.44 808.05 1425.86 808.372 1425.29 808.697 C 1420.29 811.561 1416.96 812.071 1412.49 808.524 C 1412.19 808.523 1405.24 812.854 1405.04 809.043 C 1404.56 799.643 1404.86 788.031 1404.9 778.714 z" fill="rgb(219,221,248)" transform="translate(0,0)"></path>
<path d="M 1414.76 794.601 C 1416.67 793.66 1418.94 793.843 1420.67 795.077 C 1422.4 796.311 1423.32 798.397 1423.05 800.507 C 1422.78 802.617 1421.38 804.41 1419.39 805.174 C 1416.51 806.284 1413.26 804.93 1412.03 802.101 C 1410.79 799.272 1411.99 795.968 1414.76 794.601 z" fill="rgb(35,36,46)" transform="translate(0,0)"></path>
<path d="M 1047.61 788.84 C 1049.2 788.928 1053.07 788.486 1054.34 789.722 C 1056.93 792.801 1059.42 786.06 1065.48 789.158 C 1077.64 795.369 1074.88 805.978 1063.79 811.18 C 1058.1 810.715 1060.55 810.867 1055.7 809.068 C 1053.96 809.835 1055.7 818.55 1054.63 819.385 C 1044.21 827.505 1047.58 796.317 1047.61 788.84 z" fill="rgb(219,221,248)" transform="translate(0,0)"></path>
<path d="M 1057.29 794.764 C 1059.11 793.734 1061.35 793.784 1063.11 794.895 C 1064.88 796.007 1065.89 798 1065.75 800.082 C 1065.61 802.165 1064.33 804 1062.43 804.86 C 1059.67 806.107 1056.41 804.963 1055.04 802.263 C 1053.67 799.563 1054.66 796.26 1057.29 794.764 z" fill="rgb(35,36,46)" transform="translate(0,0)"></path>
<path d="M 1315.04 838.694 C 1315.78 838.851 1316.52 838.995 1317.27 839.126 C 1318.21 839.283 1319.18 839.363 1320.04 839.836 C 1320.56 840.122 1320.71 840.387 1320.81 840.944 C 1321.37 844.019 1321.53 870.29 1320.37 871.189 C 1317.18 873.675 1315.89 870.23 1313.41 870.175 C 1312.57 870.157 1306.86 872.171 1302.8 872.135 C 1300.98 870.681 1298.86 869.398 1297.71 867.14 C 1292.97 857.772 1300.27 846.68 1310.99 850.288 C 1312.02 850.635 1312.27 851.194 1313.4 851.069 C 1315.02 849.563 1312.69 843.875 1315.04 838.694 z" fill="rgb(219,221,248)" transform="translate(0,0)"></path>
<path d="M 1307.98 853.371 C 1315.73 857.062 1315.96 862.222 1310.32 867.982 C 1301.7 864.091 1301.82 859.931 1307.98 853.371 z" fill="rgb(35,36,46)" transform="translate(0,0)"></path>
<path d="M 1159.4 839.942 C 1160.09 839.981 1166.46 839.876 1166.53 840.869 C 1167.28 850.574 1167.13 861.021 1166.6 870.771 C 1166.54 871.911 1162.07 871.549 1161.09 871.007 C 1158.33 869.485 1154.11 871.801 1149.85 872.104 C 1142.79 868.243 1139.51 862.875 1143.47 854.873 C 1147.35 847.051 1155.83 851.387 1159.11 850.484 C 1159.61 849.259 1159.38 841.861 1159.4 839.942 z" fill="rgb(219,221,248)" transform="translate(0,0)"></path>
<path d="M 1153.84 853.367 C 1162.34 857.151 1161.45 862.366 1155.24 868.119 C 1147.25 863.521 1147.51 859.452 1153.84 853.367 z" fill="rgb(35,36,46)" transform="translate(0,0)"></path>
<path d="M 1356.04 849.01 C 1359.99 849.605 1361.28 849.951 1364.6 852.306 C 1369.05 850.668 1369.14 850.452 1373.48 849.813 C 1383.97 848.265 1381.33 871.081 1380.15 871.501 C 1368.49 875.654 1376.31 859.121 1372.08 856.435 C 1363.92 851.255 1365.93 866.343 1365.94 869.943 C 1364.4 873.096 1359.35 871.914 1358.87 871.098 C 1357.66 869.033 1358.67 862.494 1358.31 859.502 C 1357.96 856.566 1357.29 854.553 1353.55 855.156 C 1348.14 856.733 1352.3 867.491 1350.15 871.083 C 1349.16 872.749 1345.05 872.241 1343.74 871.218 C 1342.81 870.211 1343.15 865.687 1343.19 864.26 C 1343.37 860.428 1342.72 855.047 1343.36 851.44 C 1343.76 849.154 1349.22 850.117 1350.37 851.282 C 1351.13 852.048 1355.23 849.43 1356.04 849.01 z" fill="rgb(219,221,248)" transform="translate(0,0)"></path>
<path d="M 1688.34 787.937 C 1692.29 788.419 1693.58 788.715 1696.6 791.06 C 1698 791.749 1701.36 789.229 1703.24 788.564 C 1714.52 784.573 1712.84 809.166 1711.71 809.653 C 1698.76 815.236 1709.55 794.535 1702 793.722 C 1695.73 793.048 1697.2 804.08 1697.19 808.111 C 1696.38 810.851 1695.55 809.912 1692.98 810.211 C 1686.03 811.018 1694.06 792.961 1686.92 793.122 C 1676.14 793.673 1689.19 815.912 1675.49 809.283 C 1674.53 808.817 1674.85 791.777 1675.33 790.066 C 1675.92 787.998 1681 788.871 1682.31 790.322 C 1682.78 790.844 1687.69 788.226 1688.34 787.937 z" fill="rgb(219,221,248)" transform="translate(0,0)"></path>
<path d="M 1394.56 850.17 C 1400.12 849.615 1407.1 848.562 1410.89 853.543 C 1416.47 860.864 1412.89 867.047 1406.84 871.699 C 1387.99 874.32 1380.89 859.798 1394.56 850.17 z" fill="rgb(219,221,248)" transform="translate(0,0)"></path>
<path d="M 1397.89 855.904 C 1399.75 854.855 1402.03 854.904 1403.85 856.031 C 1405.66 857.159 1406.72 859.186 1406.61 861.32 C 1406.49 863.454 1405.23 865.356 1403.3 866.283 C 1400.45 867.655 1397.03 866.518 1395.57 863.716 C 1394.11 860.913 1395.13 857.456 1397.89 855.904 z" fill="rgb(35,36,46)" transform="translate(0,0)"></path>
<path d="M 1332.55 788.828 C 1342.47 789.404 1339.85 790.262 1342.92 801.123 C 1344.74 797.043 1346.21 789.484 1350.73 788.885 C 1355.45 788.258 1356.99 799.743 1357.97 803.443 C 1358.42 802.225 1362.43 789.872 1363.01 789.667 C 1367.99 787.894 1369.74 789.235 1367.57 794.249 C 1365.1 801.042 1364.47 810.419 1358.05 810.587 C 1352.01 810.744 1352.02 802.437 1349.94 797.211 C 1348.71 801.298 1347.69 805.573 1346.22 809.519 C 1345.71 810.885 1340.11 810.269 1339.97 810.034 C 1336.66 804.485 1334.76 795.176 1332.55 788.828 z" fill="rgb(219,221,248)" transform="translate(0,0)"></path>
<path d="M 1277.22 787.963 C 1279.73 788.177 1282.43 788.418 1284.8 789.377 C 1287.63 790.508 1289.9 792.701 1291.12 795.485 C 1294.56 803.241 1288.85 808.457 1282.09 811.024 C 1263.02 810.406 1261.12 794.853 1277.22 787.963 z" fill="rgb(219,221,248)" transform="translate(0,0)"></path>
<path d="M 1276.49 794.669 C 1279.27 793.122 1282.77 794.074 1284.39 796.814 C 1286 799.555 1285.13 803.081 1282.43 804.757 C 1280.62 805.877 1278.35 805.931 1276.49 804.898 C 1274.64 803.866 1273.49 801.909 1273.49 799.785 C 1273.49 797.661 1274.64 795.703 1276.49 794.669 z" fill="rgb(35,36,46)" transform="translate(0,0)"></path>
<path d="M 1528.33 583.477 C 1535.48 583.397 1542.64 583.416 1549.79 583.535 L 1549.8 603.921 L 1528.28 603.884 C 1528.26 597.2 1528.14 590.127 1528.33 583.477 z" fill="rgb(219,221,248)" transform="translate(0,0)"></path>
<path d="M 1462.54 864.528 C 1463.75 874.709 1442.92 876.096 1440.35 863.419 C 1439.72 860.234 1440.43 856.929 1442.32 854.286 C 1450.96 842.379 1469.73 855.816 1462.59 862.619 L 1462.54 864.528 z" fill="rgb(219,221,248)" transform="translate(0,0)"></path>
<path d="M 1462.54 864.528 C 1456.68 865.16 1453.28 869.576 1449.57 866.921 C 1440.33 860.318 1460.16 862.503 1462.59 862.619 L 1462.54 864.528 z" fill="rgb(41,40,57)" transform="translate(0,0)"></path>
<path d="M 1448 855.232 C 1453.53 854.437 1454.43 853.491 1457.6 858.298 C 1452.9 858.493 1448.27 860.381 1448 855.232 z" fill="rgb(41,40,57)" transform="translate(0,0)"></path>
<path d="M 1226.08 802.937 C 1226.08 809.147 1223.16 809.788 1217.45 810.587 C 1198.8 813.196 1199.15 787.224 1216.78 788.47 C 1224.49 789.014 1227.78 793.259 1226.79 800.731 C 1226.05 801.673 1226.19 801.57 1226.08 802.937 z" fill="rgb(219,221,248)" transform="translate(0,0)"></path>
<path d="M 1226.08 802.937 C 1221.56 803.852 1219.08 806.286 1215.01 805.777 C 1213.95 805.96 1210.54 802.603 1211.68 801.876 C 1214.12 800.313 1223.87 801.006 1226.79 800.731 C 1226.05 801.673 1226.19 801.57 1226.08 802.937 z" fill="rgb(41,40,57)" transform="translate(0,0)"></path>
<path d="M 1213.07 792.686 C 1216.72 793.068 1220.12 792.657 1219.56 797.269 C 1214.07 796.909 1210.8 798.64 1213.07 792.686 z" fill="rgb(26,26,30)" transform="translate(0,0)"></path>
<path d="M 1395.6 804.111 C 1395.36 813.313 1380.99 812.43 1376.41 807.603 C 1374.35 805.426 1373.3 802.482 1373.52 799.493 C 1374.52 784.396 1400.39 785.484 1397.16 801.264 C 1395.8 802.402 1395.9 802.262 1395.6 804.111 z" fill="rgb(219,221,248)" transform="translate(0,0)"></path>
<path d="M 1395.6 804.111 C 1390.9 803.695 1392.84 804.215 1388.49 805.947 C 1382.45 808.353 1376.52 799.654 1387.78 801.246 C 1389.26 801.455 1395.14 801.33 1397.16 801.264 C 1395.8 802.402 1395.9 802.262 1395.6 804.111 z" fill="rgb(41,40,57)" transform="translate(0,0)"></path>
<path d="M 1384.41 792.379 C 1387.82 793.619 1390.92 794.129 1388.5 797.881 C 1381.95 796.8 1380.09 798.09 1384.41 792.379 z" fill="rgb(26,26,30)" transform="translate(0,0)"></path>
<path d="M 1324.09 583.292 C 1331.26 583.238 1338.42 583.262 1345.59 583.366 L 1345.68 603.283 C 1338.46 603.153 1331.25 603.118 1324.04 603.178 C 1324.01 596.691 1323.88 589.742 1324.09 583.292 z" fill="rgb(219,221,248)" transform="translate(0,0)"></path>
<path d="M 1083.88 839.453 C 1085.29 839.54 1090.15 839.532 1090.47 840.102 C 1091.61 842.077 1091.16 856.677 1091.16 858.857 C 1097.16 852.278 1095.43 852.029 1103.38 849.847 L 1104.53 849.52 L 1105.64 850.52 L 1105.74 850.431 L 1105.81 850.462 C 1105.88 851.845 1100.99 856.647 1099.72 858.086 C 1102.12 862.03 1104.58 865.936 1107.1 869.802 C 1108.67 872.972 1102.54 871.695 1100.91 871.704 C 1097.44 871.806 1096.02 862.788 1093.07 863.761 C 1089.16 867.367 1094.01 874.454 1084.47 871.183 C 1083.46 870.837 1083.88 841.542 1083.88 839.453 z" fill="rgb(219,221,248)" transform="translate(0,0)"></path>
<path d="M 1238.78 858.668 C 1230.98 849.893 1253.21 846.808 1256.69 853.203 C 1259.02 857.485 1258.49 866.449 1257.43 870.983 C 1256.92 872.802 1250.07 869.937 1249.3 870.333 C 1240.55 874.822 1231.05 869.847 1239.29 859.896 L 1238.78 858.668 z" fill="rgb(219,221,248)" transform="translate(0,0)"></path>
<path d="M 1238.78 858.668 C 1241.96 857.197 1246.52 853.006 1248.47 854.07 C 1256.39 858.385 1240.47 859.684 1239.29 859.896 L 1238.78 858.668 z" fill="rgb(41,40,57)" transform="translate(0,0)"></path>
<path d="M 1246.37 861.847 C 1247.99 861.329 1249.73 862.167 1250.33 863.754 C 1250.93 865.341 1250.18 867.121 1248.63 867.804 C 1247.55 868.278 1246.3 868.118 1245.37 867.388 C 1244.45 866.658 1244 865.477 1244.21 864.317 C 1244.42 863.157 1245.25 862.207 1246.37 861.847 z" fill="rgb(35,36,46)" transform="translate(0,0)"></path>
<path d="M 1648.7 797.382 C 1640.96 790.016 1652.18 789.11 1658 788.262 C 1669.17 786.632 1670.93 817.418 1659.52 809.517 C 1658.41 808.742 1647.89 813.879 1645.39 807.635 C 1643.22 802.603 1645.3 801.087 1649.7 798.833 L 1648.7 797.382 z" fill="rgb(219,221,248)" transform="translate(0,0)"></path>
<path d="M 1648.7 797.382 C 1651.29 795.835 1654.48 792.063 1656.42 792.929 C 1665.02 796.758 1650.55 798.643 1649.7 798.833 L 1648.7 797.382 z" fill="rgb(41,40,57)" transform="translate(0,0)"></path>
<path d="M 1656.54 800.307 C 1661.83 802.933 1658.1 805.327 1655.07 808.214 C 1650.55 803.768 1651.58 804.231 1656.54 800.307 z" fill="rgb(26,26,30)" transform="translate(0,0)"></path>
<path d="M 1129.99 864.619 C 1131.43 864.728 1137.52 865.175 1134.24 868.085 C 1116.29 884.042 1100.18 851.612 1124.51 849.895 C 1131.43 849.407 1136.11 855.091 1135.72 862.443 C 1133.82 862.169 1131.73 861.825 1129.84 861.671 L 1128.12 861.967 L 1129.93 863.908 L 1129.99 864.619 z" fill="rgb(219,221,248)" transform="translate(0,0)"></path>
<path d="M 1119.09 862.324 C 1122.6 862.017 1124.61 861.935 1128.12 861.967 L 1129.93 863.908 L 1129.99 864.619 C 1125.08 869.399 1121.71 868.531 1119.09 862.324 z" fill="rgb(35,36,46)" transform="translate(0,0)"></path>
<path d="M 1129.46 857.453 C 1128.5 859.465 1128.23 859.937 1129.84 861.671 L 1128.12 861.967 C 1124.61 861.935 1122.6 862.017 1119.09 862.324 C 1119.02 861.082 1118.97 859.313 1118.75 858.12 C 1123.99 858.37 1124.38 858.594 1129.46 857.453 z" fill="rgb(212,209,250)" transform="translate(0,0)"></path>
<path d="M 1118.75 858.12 C 1123.65 852.954 1124.53 852.697 1129.46 857.453 C 1124.38 858.594 1123.99 858.37 1118.75 858.12 z" fill="rgb(26,26,30)" transform="translate(0,0)"></path>
<path d="M 1568.49 794.759 C 1562.83 798.499 1558.64 794.213 1566.42 789.824 C 1572.45 786.064 1584.46 788.81 1583.85 797.504 C 1583.3 805.294 1587.59 813.522 1575.94 809.226 C 1575.03 808.892 1563.24 813.918 1561.33 805.781 C 1559.86 799.497 1565.25 799.149 1569.98 798.7 C 1581.88 796.082 1574.11 790.629 1568.49 794.759 z" fill="rgb(219,221,248)" transform="translate(0,0)"></path>
<path d="M 1574.31 800.635 C 1578.72 804.561 1574.2 805.79 1570.88 807.234 C 1568.44 802.745 1569.65 803.102 1574.31 800.635 z" fill="rgb(26,26,30)" transform="translate(0,0)"></path>
<path d="M 1053.13 849.811 C 1055.07 850.01 1057.08 850.044 1059.02 850.367 C 1059.89 850.373 1060.12 852.422 1060.58 852.478 C 1061.68 852.611 1064.17 850.662 1065.09 850.347 C 1069.15 848.947 1073.57 850.09 1074.96 854.505 C 1075.89 857.431 1075.85 860.392 1075.83 863.43 C 1075.75 865.789 1076.34 868.51 1075.47 870.744 C 1075.09 871.598 1073.6 872.091 1072.78 872.141 C 1068.44 872.404 1068.21 870.399 1068.27 867.249 C 1068.25 864.233 1069.93 854.119 1064.15 855.35 C 1056.72 857.333 1063.27 869.682 1058.59 871.87 C 1050.17 875.804 1053.03 856.796 1053.13 849.811 z" fill="rgb(219,221,248)" transform="translate(0,0)"></path>
<path d="M 1192.96 849.744 C 1193.76 849.827 1195.6 850.025 1196.22 850.019 C 1198.89 849.997 1199.03 850.186 1200.6 851.85 C 1200.99 852.261 1203.28 850.73 1203.89 850.458 C 1205.87 849.576 1208.92 849.537 1211.02 850.288 C 1212.17 850.714 1214.27 852.288 1214.77 854.011 C 1215.83 857.636 1216 866.529 1215.39 870.369 C 1215.33 870.768 1213.73 871.619 1213.07 871.573 C 1211.79 871.414 1209.87 871.468 1208.97 870.364 C 1208.01 869.186 1208.36 867.616 1208.5 866.241 C 1208.4 863.54 1208.98 857.154 1206.54 855.929 C 1197.46 851.608 1201.2 869.299 1199.75 870.33 C 1189.48 877.603 1192.79 855.594 1192.96 849.744 z" fill="rgb(219,221,248)" transform="translate(0,0)"></path>
<path d="M 1266.3 849.969 C 1272.85 850.43 1269.94 849.181 1273.97 851.859 C 1275.82 852.023 1281.53 847.648 1285.61 850.871 C 1287.05 852.014 1288.71 854.012 1288.73 856.001 C 1288.78 860.581 1289.68 866.607 1288.39 870.893 C 1288 871.481 1287.1 871.474 1286.58 871.536 C 1280.28 872.291 1281.93 868.12 1281.75 861.755 C 1281.98 858.978 1281.59 854.128 1276.92 855.27 C 1269.64 859.006 1277.66 869.26 1270.5 871.646 C 1263.56 873.958 1266.29 856.655 1266.3 849.969 z" fill="rgb(219,221,248)" transform="translate(0,0)"></path>
<path d="M 1139.96 794.018 C 1138.74 799.329 1141.9 814.185 1132.6 809.616 C 1130.02 808.35 1134.71 793.655 1129.04 793.865 C 1118.16 794.267 1130.93 815.848 1117.34 808.914 C 1118.57 809.539 1111.91 780.906 1124.61 790.711 C 1126.16 791.912 1129.65 784.899 1138.74 791.891 C 1139.19 792.646 1139.54 793.255 1139.96 794.018 z" fill="rgb(219,221,248)" transform="translate(0,0)"></path>
<path d="M 1498.53 787.954 C 1503 788.789 1507.04 790.208 1507.85 795.984 C 1508.05 797.423 1508.38 809.249 1507.35 809.602 C 1495.72 813.569 1503.76 800.245 1499.76 795.233 C 1493.43 791.895 1496.46 793.748 1494.13 793.506 C 1491.76 798.994 1491.9 809.342 1491.38 809.627 C 1481.21 815.285 1486.45 794.019 1485.53 789.87 C 1485.12 788.024 1491.81 788.643 1492.64 790.359 C 1493.05 791.217 1498.24 788.108 1498.53 787.954 z" fill="rgb(219,221,248)" transform="translate(0,0)"></path>
<path d="M 1008.22 841.943 C 1018.15 842.267 1016.34 840.92 1016.55 851.746 C 1016.64 856.497 1016.51 861.358 1016.51 866.115 C 1025.54 866.204 1029.72 863.024 1030.53 871.732 L 1008.22 871.933 C 1008.17 861.936 1008.17 851.939 1008.22 841.943 z" fill="rgb(219,221,248)" transform="translate(0,0)"></path>
<path d="M 1523.9 802.119 C 1516.69 800.065 1510.79 794.478 1520.49 788.888 C 1523.07 787.404 1527.97 788.223 1530.37 789.409 C 1532.41 789.837 1535.42 794.172 1532.56 795.241 C 1528.72 796.324 1525.88 789.548 1522.69 793.451 C 1521.63 794.755 1522.84 796.83 1524.51 796.987 C 1532.99 797.786 1539.9 802.736 1530.93 809.796 C 1529.13 811.219 1521.69 811.31 1519.51 809.946 C 1515.27 807.796 1513.09 803.567 1519.99 803.994 C 1521.19 803.445 1522.77 802.775 1523.9 802.119 z" fill="rgb(219,221,248)" transform="translate(0,0)"></path>
<path d="M 1523.9 802.119 C 1531.03 803.277 1529.02 810.241 1519.99 803.994 C 1521.19 803.445 1522.77 802.775 1523.9 802.119 z" fill="rgb(41,40,57)" transform="translate(0,0)"></path>
<path d="M 1177.56 789.323 C 1185.18 789.292 1193.06 789.217 1200.65 789.526 C 1199.01 791.5 1187.59 802.946 1187.62 804.372 C 1187.64 805.564 1195.43 804.76 1196.69 805.491 C 1197.55 805.991 1197.97 806.863 1198.2 807.798 C 1198.38 808.545 1198.56 809.283 1198.76 810.025 C 1196.53 810.049 1178.13 810.624 1177.44 809.349 C 1175.34 805.482 1186.29 797.418 1186.94 794.65 C 1185.33 792.228 1176.8 797.403 1177.54 790.391 L 1177.56 789.323 z" fill="rgb(219,221,248)" transform="translate(0,0)"></path>
<path d="M 1258.98 777.586 C 1261.83 779.013 1264.5 782.285 1259.9 784.268 C 1257.05 783.479 1256.49 788.406 1257.53 788.672 C 1264.25 790.383 1263.31 793.507 1257.59 795.181 C 1256.76 795.425 1257.09 806.18 1257.1 810.129 C 1246.91 809.641 1250.27 809.508 1249.88 798.486 C 1251.27 793.33 1243.87 794.559 1247.68 789.638 C 1253.45 782.199 1247.26 782.061 1258.98 777.586 z" fill="rgb(219,221,248)" transform="translate(0,0)"></path>
<path d="M 1083.08 782.831 C 1095.87 783.149 1083.05 786.369 1092.5 789.721 C 1096.49 791.138 1089.25 795.185 1089.29 795.023 C 1086.36 806.108 1092.24 804.136 1093.8 810.165 C 1079.81 812.562 1081.85 805.813 1080.95 794.989 C 1080.96 795.105 1072.82 791.431 1080.77 788.668 C 1081.71 788.343 1082.76 783.827 1083.08 782.831 z" fill="rgb(219,221,248)" transform="translate(0,0)"></path>
<path d="M 1544.36 782.95 C 1545.78 783.062 1549.48 782.966 1550.29 783.839 C 1551.22 785.192 1549.84 788.801 1552.99 789.054 C 1555.38 788.943 1555.6 790.561 1555.19 792.637 C 1554.93 793.922 1551.55 793.456 1551.27 795.009 C 1550.86 796.39 1550.78 804.321 1551.24 805.026 C 1552.88 807.531 1555.6 804.796 1554.73 810.565 C 1552.05 810.579 1550.18 811.013 1547.1 809.684 C 1540.94 807.029 1546.57 795.818 1542.5 793.758 C 1540.71 792.851 1540 793.435 1540.1 790.965 C 1540.17 789.177 1541.96 789.288 1543.01 788.38 C 1544.18 787.385 1544.16 784.324 1544.36 782.95 z" fill="rgb(219,221,248)" transform="translate(0,0)"></path>
<path d="M 1468.03 780.746 C 1469.14 780.748 1475.4 780.3 1475.51 781.559 C 1476.28 789.999 1475.87 801.818 1475.8 810.131 C 1474.62 810.123 1468.59 810.388 1468.48 809.415 C 1467.56 801.3 1468.02 788.728 1468.03 780.746 z" fill="rgb(219,221,248)" transform="translate(0,0)"></path>
<path d="M 1176.01 841.883 C 1177.58 841.933 1183.48 841.278 1183.55 843.495 C 1183.87 852.7 1183.6 862.325 1183.54 871.533 C 1182.05 871.494 1176.26 872.137 1176.18 870.03 C 1175.84 860.818 1176.02 851.102 1176.01 841.883 z" fill="rgb(219,221,248)" transform="translate(0,0)"></path>
<path d="M 1637.08 787.627 C 1641.32 789.766 1640 794.14 1639.08 794.295 C 1621.81 797.219 1641.13 807.285 1625.8 811.036 C 1625.78 811.006 1624.7 809.394 1624.66 809.076 C 1624.06 803.224 1623.68 795.467 1624.69 789.738 C 1625.7 788.839 1628.83 788.013 1629.84 789.258 C 1632.43 792.448 1633.82 789.836 1637.08 787.627 z" fill="rgb(219,221,248)" transform="translate(0,0)"></path>
<path d="M 1299.23 789.136 C 1302.7 789.314 1304.48 788.377 1306.61 791.156 C 1308.5 791.783 1310.38 788.463 1312.04 789.042 C 1315.79 790.352 1314.68 796.004 1310.17 795.43 C 1308.8 795.255 1307.24 797.584 1306.79 798.893 C 1306.8 800.643 1309.64 814.887 1299.59 809.717 C 1298.85 809.337 1299.17 792.137 1299.23 789.136 z" fill="rgb(219,221,248)" transform="translate(0,0)"></path>
<path d="M 1420.68 849.875 C 1422.15 850.01 1429.22 851.783 1429.34 851.6 C 1430.11 850.001 1434.91 849.335 1435.47 851.067 C 1437.93 858.667 1429.91 852.501 1428.01 859.937 C 1428.01 862.632 1428.66 868.915 1427.3 871.331 C 1426.73 872.313 1421.45 872.034 1421.3 871.34 C 1420.1 865.648 1420.7 855.609 1420.68 849.875 z" fill="rgb(219,221,248)" transform="translate(0,0)"></path>
<path d="M 1138.74 791.891 L 1139.22 791.563 C 1141.88 789.711 1143.4 788.041 1147.03 788.56 C 1149.24 788.892 1151.21 790.124 1152.47 791.964 C 1154.45 794.875 1157.01 814.968 1148.45 809.931 C 1142.89 806.66 1153.19 793.095 1139.96 794.018 C 1139.54 793.255 1139.19 792.646 1138.74 791.891 z" fill="rgb(219,221,248)" transform="translate(0,0)"></path>
<path d="M 1036.87 850.003 C 1037.63 850.079 1043.31 850.245 1043.46 851.078 C 1044.48 856.98 1044.05 866.308 1043.95 872.245 C 1043.14 872.157 1037.52 871.845 1037.4 871.335 C 1036.22 865.935 1036.5 855.337 1036.87 850.003 z" fill="rgb(219,221,248)" transform="translate(0,0)"></path>
<path d="M 1162.78 789.008 C 1170.76 789.439 1170.04 788.308 1169.99 797.033 C 1169.97 801.398 1169.97 805.908 1169.96 810.284 C 1161.5 809.782 1162.94 810.848 1162.81 801.683 C 1162.75 797.494 1162.8 793.201 1162.78 789.008 z" fill="rgb(219,221,248)" transform="translate(0,0)"></path>
<path d="M 1106.31 788.612 C 1108.36 790.797 1108.57 793.812 1108.15 796.696 C 1106.71 806.516 1112.27 808.144 1103.08 811.179 C 1099.75 807.223 1101.13 802.401 1100.98 797.255 C 1100.76 789.756 1099.81 790.626 1106.31 788.612 z" fill="rgb(219,221,248)" transform="translate(0,0)"></path>
<path d="M 1438.72 803.537 C 1449.17 804.745 1444.65 806.509 1439.98 816.712 C 1431.78 817.543 1437.25 810.049 1438.72 803.537 z" fill="rgb(219,221,248)" transform="translate(0,0)"></path>
<path d="M 1722.29 803.731 C 1732.22 804.107 1729.26 804.417 1725.6 812.492 L 1724.22 815.563 C 1716.34 822.21 1721.78 805.542 1722.29 803.731 z" fill="rgb(219,221,248)" transform="translate(0,0)"></path>
<path d="M 1163.62 779.707 C 1164.6 778.706 1166.06 778.32 1167.41 778.696 C 1168.76 779.073 1169.81 780.155 1170.13 781.521 C 1170.46 782.888 1170.02 784.325 1168.99 785.275 C 1167.44 786.696 1165.04 786.624 1163.59 785.112 C 1162.13 783.601 1162.14 781.202 1163.62 779.707 z" fill="rgb(219,221,248)" transform="translate(0,0)"></path>
<path d="M 1103.06 778.427 C 1104.79 777.68 1106.81 778.389 1107.69 780.054 C 1108.57 781.72 1108.03 783.784 1106.43 784.795 C 1105.29 785.525 1103.83 785.549 1102.66 784.857 C 1101.49 784.165 1100.8 782.875 1100.89 781.518 C 1100.97 780.16 1101.81 778.966 1103.06 778.427 z" fill="rgb(219,221,248)" transform="translate(0,0)"></path>
<path d="M 1037.47 840.537 C 1038.79 839.147 1040.97 839.03 1042.43 840.27 C 1043.89 841.511 1044.12 843.676 1042.96 845.202 C 1042.16 846.267 1040.83 846.798 1039.51 846.582 C 1038.19 846.367 1037.1 845.44 1036.67 844.173 C 1036.24 842.906 1036.55 841.507 1037.47 840.537 z" fill="rgb(219,221,248)" transform="translate(0,0)"></path>
<path d="M 1129.84 861.671 C 1131.73 861.825 1133.82 862.169 1135.72 862.443 C 1135.39 864.881 1132.7 863.723 1129.93 863.908 L 1128.12 861.967 L 1129.84 861.671 z" fill="rgb(26,26,30)" transform="translate(0,0)"></path>
<path d="M 404.014 417.932 L 411.964 425.232 L 412.008 692.012 L 412.032 758.727 C 412.015 776.112 411.27 794.977 414.185 812.028 C 417.448 831.854 425.61 850.551 437.931 866.423 C 459.255 893.917 495.768 913.857 530.172 917.896 C 555.457 920.732 580.816 913.246 600.509 897.134 C 620.143 881.487 632.602 858.554 635.041 833.566 C 637.693 806.017 626.425 777.031 609.111 755.798 C 588.236 730.197 560.111 720.279 528.496 717.054 C 528.398 719.282 527.689 726.635 530.466 726.882 C 580.987 731.372 621.225 772.496 624.667 823.793 C 627.048 866.451 583.798 907.806 541.991 906.878 C 489.731 905.717 437.158 867.815 425.209 815.814 C 420.838 796.791 421.969 774.64 421.951 755.204 L 421.919 686.038 L 421.799 432.139 L 434.995 440.685 L 435.071 676.119 L 435.109 751.952 C 435.145 797.143 431.595 832.508 470.335 864.872 C 490.417 881.648 519.629 895.655 546.101 893.533 C 565.458 891.94 583.323 882.506 595.554 867.418 C 634.977 819.723 595.101 753.99 541.369 741.842 C 537.349 740.933 533.692 739.709 529.511 740.167 C 528.017 742.305 528.476 746.734 528.48 749.596 C 545.748 752.714 560.607 758.124 573.155 770.499 C 599.755 796.731 609.252 836.552 580.664 865.088 C 546.48 899.209 498.823 876.903 469.758 848.601 C 441.805 821.383 444.683 794.949 444.794 759.864 L 445.001 692.631 L 445.124 445.567 L 458.53 452.816 C 457.162 528.982 458.104 607.248 458.076 683.521 L 458.023 757.437 C 458.021 785.122 454.701 804.385 470.899 828.708 C 467.311 806.734 468.434 788.666 468.603 766.566 L 468.785 704.074 L 469.003 457.847 L 481.995 463.238 L 481.954 694.883 L 481.992 768.666 C 482.001 783.279 481.923 797.308 482.718 811.899 C 484.115 837.535 503.657 863.228 529.074 868.529 C 541.316 871.07 554.065 868.571 564.443 861.597 C 608.351 832.642 575.327 771.502 532.782 763.39 C 530.512 762.957 530.698 763.246 529.167 764.468 C 529.03 765.54 528.704 770.886 529.494 771.465 C 538.331 777.665 547.062 778.791 555.369 786.367 C 572.968 802.422 582.097 828.471 563.24 847.558 C 547.98 863.004 525.909 863.01 510.206 847.52 C 501.256 838.742 495.294 827.371 493.167 815.016 C 491.463 805.2 491.986 784.954 491.983 774.43 L 492.032 706.778 L 492.01 466.986 L 505.053 471.307 L 505.018 693.358 L 504.923 766.504 C 504.906 777.577 504.299 793.634 505.005 804.123 C 505.352 809.653 506.443 815.111 508.249 820.349 C 511.423 829.426 517.311 839.269 526.337 843.503 C 532.161 846.204 538.843 846.374 544.797 843.973 C 548.883 842.371 554.524 838.449 556.531 834.547 C 568.803 810.694 547.946 793.081 528.808 785.121 C 528.75 792.484 527.509 816.324 534.079 819.887 C 536.952 817.574 540.831 808.618 543.037 804.526 L 544.392 805.26 C 557.253 824.416 543.268 844.267 526.417 830.598 C 513.04 819.747 515.56 782.062 515.54 766.457 L 515.398 703.162 L 515.191 473.888 L 528.352 478.087 C 528.537 515.303 528.516 552.521 528.288 589.737 C 541.397 589.781 553.316 590.168 566.312 592.021 C 747.055 617.793 850.557 832.524 713.092 972.565 C 667.577 1019.75 604.833 1046.4 539.273 1046.4 C 476.826 1046.78 398.834 1019.25 355.07 973.733 C 322.239 939.587 302.615 909.489 289.906 863.248 C 279.287 824.609 281.08 791.951 281.098 752.795 L 281.224 671.349 L 281.076 477.367 L 294.96 474.05 L 294.987 686.302 L 294.868 760.265 C 294.816 793.507 293.622 826.4 302.407 858.87 C 319.413 921.723 364.425 978.597 423.756 1006.34 C 458.478 1022.58 499.278 1033.68 537.647 1033.87 C 599.04 1033.92 657.906 1009.43 701.137 965.836 C 788.068 879.704 781.065 755.739 696.55 670.753 C 660.057 634.357 612.462 611.18 561.307 604.892 C 553.671 603.889 534.078 600.054 528.895 605.241 C 528.361 608.399 528.431 608.549 529.121 611.732 C 530.091 612.221 567.116 616.198 572.126 617.105 C 586.735 619.707 601.049 623.752 614.859 629.183 C 669.901 650.22 711.177 691.341 734.921 744.948 C 755.893 791.053 757.497 843.642 739.376 890.94 C 719.188 941.588 679.704 982.14 629.614 1003.67 C 563.108 1032.6 498.548 1025.26 432.753 999.398 C 362.408 968.181 314.396 898.751 306.689 822.294 C 304.358 799.172 305.078 775.502 305.191 752.248 L 305.926 663.151 C 306.11 599.039 304.766 534.823 305.616 470.782 L 319.13 466.189 L 319.098 691.298 L 318.937 762.325 C 318.874 791.993 317.703 816.135 324.095 845.452 C 331.511 878.377 346.623 909.076 368.194 935.032 C 438.47 1020.16 586.395 1035.75 671.676 963.037 C 810.017 845.075 716.618 637.399 546.204 626.418 C 542.178 626.158 531.301 624.964 528.622 627.224 C 528.111 637.341 528.916 636.203 539.429 636.614 C 584.899 638.394 632.005 656.491 665.78 687.321 C 702.683 721.476 724.689 768.764 727.052 818.992 C 729.105 865.997 711.165 903.864 680.532 938.995 C 608.863 1021.19 469.135 1015.39 391.616 943.813 C 363.668 917.685 343.935 883.982 334.828 846.822 C 325.827 810.573 328.584 748.995 328.634 709.402 L 328.832 557.698 C 328.86 526.852 329.39 493.869 328.223 463.169 C 332.864 461.375 337.538 459.454 342.164 457.603 C 341.006 530.836 342.501 605.85 342.268 679.282 L 341.98 762.443 C 341.932 781.888 341.245 803.274 343.733 822.412 C 346.813 845.277 353.885 867.424 364.628 887.842 C 411.694 977.057 536.286 1013.51 625.173 966.259 C 708.184 922.13 738.529 823.372 691.559 741.324 C 666.742 697.973 631.986 670.769 583.677 656.407 C 574.897 653.733 536.113 646.198 529.671 649.767 C 527.615 653.618 528.373 653.893 528.445 658.872 C 577.228 660.789 616.747 674.491 652.195 709.395 C 683.413 740.27 700.987 782.348 701.002 826.255 C 701.277 916.467 627.259 977.468 539.907 976.946 C 454.114 976.434 376.925 926 357.533 839.823 C 351.483 812.936 352.44 789.516 352.413 762.149 L 352.341 692.32 L 352.357 453.059 L 365.613 446.144 C 366.388 475.563 365.793 507.872 365.769 537.422 L 365.68 704.365 C 365.691 747.969 362.317 795.338 370.953 837.916 C 404.235 1002.02 681.578 1012.96 687.267 828.275 C 688.987 772.439 659.225 722.601 611.671 694.371 C 593.59 683.638 548.875 667.449 528.807 672.415 C 525.605 682.885 533.03 681.686 540.331 682.32 C 575.472 685.376 607.394 699.8 632.312 724.956 C 660.095 752.541 675.548 790.185 675.16 829.335 C 674.663 902.087 609.733 956.644 539.262 955.017 C 496.902 954.04 450.343 936.215 420.279 905.91 C 377.526 862.814 376.07 812.776 375.722 756.27 L 375.407 683.19 C 375.236 602.695 374.666 520.899 375.559 440.481 C 379.965 437.352 384.703 433.572 389.045 430.267 L 389.302 670.135 L 389.084 753.082 C 389.044 769.52 388.476 789.408 389.818 805.408 C 392.963 842.884 409.912 880.974 439.283 905.223 C 468.52 929.36 513.773 945.263 551.752 941.834 C 585.071 938.607 615.769 922.356 637.169 896.615 C 656.65 873.057 664.09 845.241 661.223 814.997 C 657.83 780.248 640.942 748.217 614.188 725.784 C 594.068 709.234 555.545 692.93 529.89 695.407 C 527.3 697.479 528.146 696.481 526.855 699.561 C 528.828 704.998 538.361 705.183 543.772 705.971 C 571.157 709.731 596.408 722.819 615.267 743.028 C 658.063 789.101 661.587 859.574 612.887 903.824 C 591.561 922.993 563.459 932.845 534.833 931.189 C 472.742 927.848 411.191 878.923 401.669 816.668 C 398.091 793.269 399.005 770.454 399.029 746.882 L 399.094 651.231 L 398.959 508.433 C 398.876 481.243 398.495 453.677 399.08 426.503 C 399.16 422.812 401.495 420.8 404.014 417.932 z" fill="rgb(219,150,239)" transform="translate(0,0)"></path>
<path d="M 404.856 266.706 C 409.12 269.515 434.128 291.913 439.45 296.53 C 466.245 319.533 492.85 342.755 519.263 366.195 C 563.411 405.476 611.66 444.265 654.7 483.9 C 565.104 481.828 473.834 464.061 404.295 403.98 C 403.72 404.609 403.134 405.229 402.538 405.84 C 347.491 462.271 229.721 482.815 153.404 484.092 C 185.313 453.57 227.453 419.629 261.677 390.055 C 308.912 349.24 356.992 306.324 404.856 266.706 z" fill="rgb(219,150,239)" transform="translate(0,0)"></path>
<metadata><recraft-signature>{"signed_by": "recraft", "signature_b64": "UCMZpeUxfNCZwKARjkkgevh69hOztf4gyBoiN3a1BDkY+aNr0HlvUVb5xxNPFHtBcJZ0tGJ+ZnYtYvizX+5GBw==", "signing_algo": "Ed25519", "generation_timestamp": 1780650064, "identifier": "41ee7ef6-1df3-400e-8212-c920c6056f69"}</recraft-signature></metadata></svg>